# AST/ASF file generated using VICON BodyLanguage
# -----------------------------------------------
:version 1.10
:name VICON
:units
  mass 1.0
  length 0.45
  angle deg
:documentation
   .ast/.asf automatically generated from VICON data using
   VICON BodyBuilder and BodyLanguage model FoxedUp or BRILLIANT.MOD
:root
   order TX TY TZ RX RY RZ
   axis XYZ
   position 0 0 0  
   orientation 0 0 0 
:bonedata
  begin
     id 1 
     name lhipjoint
     direction 0.577973 -0.728611 0.367523 
     length 2.48544 
     axis 0 0 0  XYZ
  end
  begin
     id 2 
     name lfemur
     direction 0.34202 -0.939693 0  
     length 7.1921  
     axis 0 0 20  XYZ
    dof rx ry rz
    limits (-160.0 20.0)
           (-70.0 70.0)
           (-60.0 70.0)
  end
  begin
     id 3 
     name ltibia
     direction 0.34202 -0.939693 0   
     length 7.71059   
     axis 0 0 20   XYZ
    dof rx
    limits (-10.0 170.0)
  end
  begin
     id 4 
     name lfoot
     direction 0.089538 -0.246004 0.965124   
     length 2.19909   
     axis -90 7.62852e-016 20   XYZ
    dof rx rz
    limits (-45.0 90.0)
           (-70.0 20.0)
  end
  begin
     id 5 
     name ltoes
     direction 1.53544e-011 -4.21829e-011 1   
     length 1.10116   
     axis -90 7.62852e-016 20   XYZ
    dof rx
    limits (-90.0 20.0)
  end
  begin
     id 6 
     name rhipjoint
     direction -0.554414 -0.743062 0.374812   
     length 2.4371  
     axis 0 0 0  XYZ 
  end
  begin
     id 7 
     name rfemur
     direction -0.34202 -0.939693 0   
     length 7.47254   
     axis 0 0 -20   XYZ
    dof rx ry rz
    limits (-160.0 20.0)
           (-70.0 70.0)
           (-70.0 60.0)
  end
  begin
     id 8 
     name rtibia
     direction -0.34202 -0.939693 0   
     length 7.65855   
     axis 0 0 -20   XYZ
    dof rx
    limits (-10.0 170.0)
 end
 begin
     id 9 
     name rfoot
     direction -0.133779 -0.367555 0.92033   
     length 2.43006  
     axis -90 -7.62852e-016 -20   XYZ
    dof rx rz
    limits (-45.0 90.0)
           (-20.0 70.0)
  end
  begin
     id 10 
     name rtoes
     direction -1.53563e-011 -4.21889e-011 1   
     length 1.19625   
     axis -90 -7.62852e-016 -20   XYZ
    dof rx
    limits (-90.0 20.0)
  end
  begin
     id 11 
     name lowerback
     direction 0.0249066 0.998043 -0.0573585   
     length 2.08485   
     axis 0 0 0   XYZ
    dof rx ry rz
    limits (-20.0 45.0)
           (-30.0 30.0)
           (-30.0 30.0)
  end
  begin
     id 12 
     name upperback
     direction 0.0237884 0.999673 0.00943178   
     length 2.08515   
     axis 0 0 0   XYZ
    dof rx ry rz
    limits (-20.0 45.0)
           (-30.0 30.0)
           (-30.0 30.0)
  end
  begin
     id 13 
     name thorax
     direction 0.0106671 0.999301 0.0358174   
     length 2.09037   
     axis 0 0 0   XYZ
    dof rx ry rz
    limits (-20.0 45.0)
           (-30.0 30.0)
           (-30.0 30.0)
  end
  begin
     id 14 
     name lowerneck
     direction -0.0580016 0.987052 0.149546   
     length 1.84454   
     axis 0 0 0   XYZ
    dof rx ry rz
    limits (-20.0 45.0)
           (-30.0 30.0)
           (-30.0 30.0)
  end
  begin
     id 15 
     name upperneck
     direction 0.079456 0.981963 -0.171567   
     length 1.88141   
     axis 0 0 0   XYZ
    dof rx ry rz
    limits (-20.0 45.0)
           (-30.0 30.0)
           (-30.0 30.0)
  end
  begin
     id 16
     name head
     direction 0.0262167 0.9967 -0.0768276  
     length 1.89541  
     axis 0 0 0   XYZ
    dof rx ry rz
    limits (-20.0 45.0)
           (-30.0 30.0)
           (-30.0 30.0)
  end
  begin
     id 17 
     name lclavicle
     direction 0.946135 0.322134 -0.0325326  
     length 3.949  
     axis 0 0 0   XYZ
    dof ry rz
    limits (-20.0 10.0)
           (0.0 20.0)
  end
  begin
     id 18 
     name lhumerus
     direction 1 -4.48964e-011 1.94005e-028   
     length 5.10995   
     axis 180 -30 -90   XYZ
    dof rx ry rz
    limits (-60.0 90.0)
           (-90.0 90.0)
           (-90.0 90.0)
  end
  begin
     id 19
     name lradius
     direction 1 -4.48976e-011 2.87852e-027   
     length 3.21207   
     axis 180 -30 -90   XYZ
    dof rx
    limits (-10.0 170.0)
  end
  begin
     id 20
     name lwrist
     direction 1 -4.48963e-011 1.9975e-027   
     length 1.60604   
     axis 2.96054e-016 90 90   XYZ
    dof ry
    limits (-180.0 0.0)
 end
  begin
     id 21 
     name lhand
     direction 1 -4.48919e-011 4.00227e-027   
     length 0.63349   
     axis -2.5488e-015 90 90   XYZ
    dof rx rz
    limits (-90.0 90.0)
           (-45.0 45.0)
  end
  begin
     id 22 
     name lfingers
     direction 1 -4.49037e-011 7.9652e-027   
     length 0.510736   
     axis -5.0975e-015 90 90   XYZ
    dof rx
    limits (0.0 90.0)
  end
  begin
     id 23
     name lthumb
     direction 0.707107 -6.34922e-011 0.707107   
     length 0.733318   
     axis -90 45 -4.48553e-014   XYZ
    dof rx rz
    limits (-45.0 45.0)
           (-45.0 45.0)
  end
  begin
     id 24 
     name rclavicle
     direction -0.940085 0.328911 -0.0897654   
     length 3.93848  
     axis 0 0 0   XYZ 
    dof ry rz
    limits (-10.0 20.0)
           (-20.0 0.0)
  end
  begin
     id 25 
     name rhumerus
     direction -1 -4.48958e-011 3.02044e-027  
     length 5.25109   
     axis 180 30 90   XYZ
    dof rx ry rz
    limits (-90.0 60.0)
           (-90.0 90.0)
           (-90.0 90.0)
  end
  begin
     id 26 
     name rradius
     direction -1 -4.4897e-011 9.78352e-028   
     length 3.28364   
     axis 180 30 90   XYZ
    dof rx
    limits (-10.0 170.0)
  end
  begin
     id 27 
     name rwrist
     direction -1 -4.48943e-011 1.99918e-027   
     length 1.64182   
     axis 2.96054e-016 -90 -90   XYZ
    dof ry
    limits (-180.0 0.0)
  end
  begin
     id 28
     name rhand
     direction -1 -4.49024e-011 3.98478e-027   
     length 0.599745   
     axis -2.5488e-015 -90 -90   XYZ
    dof rx rz
    limits (-90.0 90.0)
           (-45.0 45.0)
  end
  begin
     id 29
     name rfingers
     direction -1 -4.48914e-011 8.00621e-027   
     length 0.48353   
     axis -5.0975e-015 -90 -90   XYZ
    dof rx
    limits (0.0 90.0)
  end
  begin
     id 30
     name rthumb
     direction -0.707107 -6.34992e-011 0.707107   
     length 0.694255   
     axis -90 -45 4.48553e-014   XYZ
    dof rx rz
    limits (-45.0 45.0)
           (-45.0 45.0)
  end
:hierarchy
  begin
    root lhipjoint rhipjoint lowerback
    lhipjoint lfemur
    lfemur ltibia
    ltibia lfoot
    lfoot ltoes
    rhipjoint rfemur
    rfemur rtibia
    rtibia rfoot
    rfoot rtoes
    lowerback upperback
    upperback thorax
    thorax lowerneck lclavicle rclavicle
    lowerneck upperneck
    upperneck head
    lclavicle lhumerus
    lhumerus lradius
    lradius lwrist
    lwrist lhand lthumb
    lhand lfingers
    rclavicle rhumerus
    rhumerus rradius
    rradius rwrist
    rwrist rhand rthumb
    rhand rfingers
  end

#!OML:ASF E:\CV Data\Top Level 1\Subject 1\Session 1\player.ASF
:FULLY-SPECIFIED
:DEGREES
925
root 5.5125 17.8435 -3.69194 9.65297 -14.8125 -2.60366
lowerback 2.30182 2.67375 -0.655124
upperback -2.39492 3.58531 1.1558
thorax -3.86977 1.82103 1.35189
lowerneck -13.5734 -7.7464 -12.861
upperneck 12.4705 -9.58721 10.3539
head 7.1794 -4.42144 4.42081
rclavicle -8.52289e-015 -9.14409e-015
rhumerus 16.2222 19.4983 -70.7428
rradius 90.0195
rwrist 12.7724
rhand -41.0217 21.4134
rfingers 7.12502
rthumb -13.9526 -8.09845
lclavicle -8.52289e-015 -9.14409e-015
lhumerus 5.02153 -24.1286 90.3569
lradius 84.035
lwrist 24.6317
lhand -24.3786 18.7298
lfingers 7.12502
lthumb 2.11167 48.6991
rfemur -8.65552 -7.88421 16.8234
rtibia 20.2499
rfoot -15.6728 -26.2012
rtoes 1.1486
lfemur -19.663 -0.202238 -16.1949
ltibia 20.5964
lfoot -6.25003 -2.47362
ltoes -3.01894
926
root 5.50514 17.8416 -3.69838 9.57814 -14.8094 -2.62865
lowerback 2.30307 2.66462 -0.710359
upperback -2.39772 3.56835 1.08238
thorax -3.87146 1.81301 1.30803
lowerneck -13.6627 -7.6893 -12.7694
upperneck 12.5509 -9.52042 10.3401
head 7.20728 -4.38348 4.40821
rclavicle -1.90585e-014 -5.96354e-016
rhumerus 17.1121 19.7202 -70.3483
rradius 89.9509
rwrist 12.8707
rhand -41.1487 21.5183
rfingers 7.12502
rthumb -14.0749 -7.98505
lclavicle -1.90585e-014 -5.96354e-016
lhumerus 6.1187 -23.9776 89.9184
lradius 84.1534
lwrist 24.8326
lhand -24.631 18.7966
lfingers 7.12502
lthumb 1.86793 48.7681
rfemur -8.64871 -7.96156 16.8678
rtibia 20.375
rfoot -15.6912 -26.1267
rtoes 1.069
lfemur -19.6252 -0.258457 -16.1331
ltibia 20.6687
lfoot -6.26425 -2.3858
ltoes -3.05744
927
root 5.49782 17.8396 -3.70443 9.50955 -14.7811 -2.656
lowerback 2.29267 2.65435 -0.762733
upperback -2.41236 3.55004 1.00802
thorax -3.87856 1.80431 1.26196
lowerneck -13.7119 -7.63871 -12.6937
upperneck 12.6179 -9.46595 10.3407
head 7.22702 -4.35229 4.40239
rclavicle 2.91841e-014 1.09829e-014
rhumerus 18.0249 19.8952 -69.9523
rradius 89.8608
rwrist 13.0771
rhand -41.3307 21.6526
rfingers 7.12502
rthumb -14.2503 -7.83853
lclavicle 2.91841e-014 1.09829e-014
lhumerus 7.24426 -23.8529 89.473
lradius 84.2111
lwrist 24.912
lhand -24.8884 18.7859
lfingers 7.12502
lthumb 1.61934 48.7595
rfemur -8.64201 -8.05947 16.9162
rtibia 20.4986
rfoot -15.715 -26.0503
rtoes 0.997533
lfemur -19.5967 -0.325205 -16.0691
ltibia 20.7417
lfoot -6.28398 -2.30316
ltoes -3.1091
928
root 5.49069 17.8375 -3.70999 9.44555 -14.7309 -2.69036
lowerback 2.27286 2.64351 -0.813904
upperback -2.42184 3.53118 0.938375
thorax -3.87523 1.79532 1.2207
lowerneck -13.7863 -7.60312 -12.6368
upperneck 12.6909 -9.42826 10.3562
head 7.25688 -4.32799 4.40173
rclavicle -3.73451e-014 2.05121e-014
rhumerus 19.0019 20.0095 -69.5385
rradius 89.759
rwrist 13.3688
rhand -41.5069 21.7809
rfingers 7.12502
rthumb -14.4201 -7.69815
lclavicle -3.73451e-014 2.05121e-014
lhumerus 8.43427 -23.7462 89.0117
lradius 84.2066
lwrist 24.845
lhand -25.1705 18.6983
lfingers 7.12502
lthumb 1.34686 48.6738
rfemur -8.63211 -8.17312 16.9722
rtibia 20.619
rfoot -15.7407 -25.9742
rtoes 0.930538
lfemur -19.5752 -0.400277 -15.9985
ltibia 20.8178
lfoot -6.31039 -2.22424
ltoes -3.16583
929
root 5.48388 17.8352 -3.7148 9.38251 -14.6691 -2.73564
lowerback 2.23847 2.63549 -0.863983
upperback -2.43681 3.5166 0.879641
thorax -3.87015 1.78866 1.19036
lowerneck -13.8057 -7.57392 -12.6109
upperneck 12.7341 -9.40021 10.3878
head 7.27118 -4.31027 4.41149
rclavicle -1.60208e-014 -2.90723e-015
rhumerus 20.0079 20.0707 -69.1134
rradius 89.6546
rwrist 13.717
rhand -41.6449 21.8967
rfingers 7.12502
rthumb -14.553 -7.57281
lclavicle -1.60208e-014 -2.90723e-015
lhumerus 9.64741 -23.6497 88.5596
lradius 84.1442
lwrist 24.594
lhand -25.4989 18.5532
lfingers 7.12502
lthumb 1.02973 48.5305
rfemur -8.6147 -8.29932 17.0375
rtibia 20.7342
rfoot -15.7585 -25.8947
rtoes 0.845103
lfemur -19.5526 -0.482721 -15.9177
ltibia 20.8984
lfoot -6.34303 -2.14089
ltoes -3.22137
